<?xml version="1.0" encoding="iso-8859-1"?>
<!-- Uploaded to: SVG Repo, www.svgrepo.com, Generator: SVG Repo Mixer Tools -->
<svg fill="#000000" height="800px" width="800px" version="1.1" id="Layer_1" xmlns="http://www.w3.org/2000/svg" xmlns:xlink="http://www.w3.org/1999/xlink" 
	 viewBox="0 0 512.001 512.001" xml:space="preserve">
<g>
	<g>
		<path d="M505.246,116.681c4.182-4.393,6.754-10.334,6.754-16.866c0-13.496-10.978-24.476-24.474-24.476
			c-2.2,0-4.375,0.296-6.472,0.873c-12.331-15.62-31.017-24.772-51.161-24.771h-99.651V23.364h-15.215v28.079l-118.056-0.001
			l0.001-28.078h-15.215l-0.001,28.078h-99.65c-20.142,0-38.83,9.152-51.162,24.772c-2.096-0.577-4.271-0.873-6.471-0.873
			C10.978,75.339,0,86.32,0,99.815c0,6.53,2.571,12.473,6.755,16.866C2.571,121.074,0,127.017,0,133.548
			c0,13.495,10.978,24.474,24.474,24.474c2.2,0,4.375-0.296,6.471-0.872c12.332,15.619,31.019,24.771,51.161,24.771h49.804v-15.215
			H82.105c-17.116,0-32.866-8.625-42.133-23.073l-4.111-6.409l-6.405,4.116c-1.496,0.96-3.219,1.468-4.983,1.468
			c-5.104,0-9.258-4.154-9.258-9.258c0-5.105,4.154-9.259,9.258-9.259v-15.215c-5.104,0-9.258-4.154-9.258-9.258
			c0-5.105,4.154-9.26,9.258-9.26c1.762,0,3.484,0.508,4.983,1.47l6.405,4.116l4.111-6.409
			c9.266-14.449,25.016-23.075,42.134-23.075h71.972l-36.651,36.653l10.759,10.757l47.407-47.41h32.671l-36.651,36.653
			l10.759,10.757l47.408-47.41h32.668l-36.651,36.652l10.76,10.759l47.41-47.411l32.668,0.001l-36.651,36.651l10.759,10.759
			l47.41-47.41h32.668l-36.65,36.651l10.759,10.759l47.409-47.41h37.55c17.117-0.001,32.867,8.625,42.132,23.073l4.109,6.408
			l6.405-4.112c1.499-0.963,3.225-1.472,4.987-1.472c5.104,0,9.258,4.155,9.258,9.26c0,5.104-4.154,9.258-9.258,9.258v15.215
			c5.104,0,9.258,4.154,9.258,9.259c0,5.104-4.154,9.258-9.258,9.258c-1.764,0-3.488-0.508-4.987-1.47l-6.405-4.112l-4.109,6.407
			c-9.264,14.448-25.014,23.073-42.132,23.073H152.198v15.215h29.56v8.522c-0.001,19.832,7.721,38.477,21.745,52.499
			c8.535,8.535,18.786,14.719,29.971,18.267v68.976h-28.659v158.454h102.373V330.183h-28.66v-68.976
			c11.184-3.546,21.438-9.732,29.971-18.266c14.023-14.024,21.746-32.668,21.744-52.5v-8.522h99.651
			c20.142,0,38.83-9.151,51.161-24.771c2.097,0.576,4.271,0.872,6.472,0.872c13.495,0,24.474-10.978,24.474-24.474
			C512.001,127.017,509.43,121.074,505.246,116.681z M291.971,345.398v18.891h-49.115v15.215h49.115v93.916H220.03V345.398h13.443
			h45.054H291.971z M248.688,330.183v-65.852c2.396,0.233,4.816,0.352,7.255,0.354c0.019,0,0.036,0.001,0.056,0.001H256
			c0.001,0,0.001,0,0.001,0c2.458,0,4.896-0.12,7.31-0.355v65.852H248.688z M315.027,190.441c0,15.768-6.14,30.592-17.288,41.741
			c-7.581,7.58-16.863,12.838-26.982,15.431l-1.535,0.351c-8.708,1.993-17.687,2.005-26.445,0l-1.526-0.349
			c-10.123-2.594-19.408-7.851-26.99-15.435c-11.149-11.149-17.289-25.973-17.289-41.74v-8.522h118.055V190.441z"/>
	</g>
</g>
</svg>